# xmcd CD database file
#
# Track frame offsets:
#	150
#	15136
#	34996
#	38667
#	57236
#	77607
#	94668
#	115763
#	133610
#	154761
#	159951
#	185624
#
# Disc length: 2769 seconds
#
# Revision: 1
# Processed by: cddbd v1.5.2PL0 Copyright (c) Steve Scherf et al.
# Submitted via: CDex 1.51
#
DISCID=850acf0c
DTITLE=Neneh Cherry - Broken Politics
DYEAR=2018
DGENRE=R&B
TTITLE0=Fallen Leaves
TTITLE1=Kong
TTITLE2=Poem Daddy (Interlude)
TTITLE3=Synchronised Devotion
TTITLE4=Deep Vein Thrombosis
TTITLE5=Faster Than The Truth
TTITLE6=Natural Skin Deep
TTITLE7=Shot Gun Shack
TTITLE8=Black Monday
TTITLE9=Cheap Breakfast Special (Interlude)
TTITLE10=Slow Release
TTITLE11=Soldier
EXTD=YEAR: 2018
EXTT0=
EXTT1=
EXTT2=
EXTT3=
EXTT4=
EXTT5=
EXTT6=
EXTT7=
EXTT8=
EXTT9=
EXTT10=
EXTT11=
PLAYORDER=
